<?xml version="1.0" standalone="no"?>
<!DOCTYPE svg PUBLIC "-//W3C//DTD SVG 20010904//EN"
 "http://www.w3.org/TR/2001/REC-SVG-20010904/DTD/svg10.dtd">
<svg version="1.0" xmlns="http://www.w3.org/2000/svg"
 width="500.000000pt" height="500.000000pt" viewBox="0 0 500.000000 500.000000"
 preserveAspectRatio="xMidYMid meet">
<metadata>
Created by potrace 1.14, written by Peter Selinger 2001-2017
</metadata>
<g transform="translate(0.000000,500.000000) scale(0.100000,-0.100000)"
fill="#000000" stroke="none">
<path d="M0 2500 l0 -2500 2500 0 2500 0 0 2500 0 2500 -2500 0 -2500 0 0
-2500z m1037 1227 c-1 -84 -3 -12 -3 158 0 171 2 239 3 152 2 -87 2 -227 0
-310z m-608 398 c0 -5 -6 1 -14 15 -8 14 -14 30 -14 35 0 6 6 -1 14 -15 8 -14
14 -29 14 -35z m342 8 c-12 -20 -14 -14 -5 12 4 9 9 14 11 11 3 -2 0 -13 -6
-23z m-321 -58 c0 -5 -5 -3 -10 5 -5 8 -10 20 -10 25 0 6 5 3 10 -5 5 -8 10
-19 10 -25z m301 8 c-12 -20 -14 -14 -5 12 4 9 9 14 11 11 3 -2 0 -13 -6 -23z
m-254 -130 c-3 -2 -12 15 -22 39 -28 69 -27 78 0 19 14 -29 24 -55 22 -58z
m229 70 c-8 -15 -15 -25 -16 -21 0 12 23 58 27 54 3 -2 -2 -17 -11 -33z m-359
-90 c-3 -2 -12 15 -22 39 -28 69 -27 78 0 19 14 -29 24 -55 22 -58z m489 70
c-8 -15 -15 -25 -16 -21 0 12 23 58 27 54 3 -2 -2 -17 -11 -33z m264 -3 c6
-11 8 -20 6 -20 -3 0 -10 9 -16 20 -6 11 -8 20 -6 20 3 0 10 -9 16 -20z m170
0 c6 -11 8 -20 6 -20 -3 0 -10 9 -16 20 -6 11 -8 20 -6 20 3 0 10 -9 16 -20z
m290 -29 c-28 -56 -35 -52 -8 4 12 24 23 43 26 41 2 -2 -6 -22 -18 -45z m159
-14 c-17 -31 -33 -57 -35 -57 -3 0 9 27 27 60 18 33 34 59 35 57 2 -2 -10 -29
-27 -60z m-1038 6 c-12 -20 -14 -14 -5 12 4 9 9 14 11 11 3 -2 0 -13 -6 -23z
m130 -20 c-12 -20 -14 -14 -5 12 4 9 9 14 11 11 3 -2 0 -13 -6 -23z m324 -3
c9 -16 13 -30 11 -30 -3 0 -12 14 -21 30 -9 17 -13 30 -11 30 3 0 12 -13 21
-30z m159 14 c3 -8 2 -12 -4 -9 -6 3 -10 10 -10 16 0 14 7 11 14 -7z m-794
-49 c0 -5 -5 -3 -10 5 -5 8 -10 20 -10 25 0 6 5 3 10 -5 5 -8 10 -19 10 -25z
m149 -24 c-12 -28 -24 -50 -26 -48 -2 2 6 27 18 56 12 28 24 50 26 48 2 -2 -6
-27 -18 -56z m696 -21 c19 -38 33 -70 30 -70 -2 0 -21 32 -40 70 -19 39 -33
70 -30 70 2 0 21 -31 40 -70z m-975 25 c0 -5 -5 -3 -10 5 -5 8 -10 20 -10 25
0 6 5 3 10 -5 5 -8 10 -19 10 -25z m421 8 c-12 -20 -14 -14 -5 12 4 9 9 14 11
11 3 -2 0 -13 -6 -23z m389 -33 c11 -22 18 -40 15 -40 -2 0 -14 18 -25 40 -11
22 -18 40 -15 40 2 0 14 -18 25 -40z m300 -40 c-22 -44 -42 -80 -45 -80 -3 0
13 36 35 80 22 44 42 80 45 80 3 0 -13 -36 -35 -80z m-933 -37 c-3 -2 -12 15
-22 39 -28 69 -27 78 0 19 14 -29 24 -55 22 -58z m1113 67 c-11 -22 -23 -40
-25 -40 -3 0 4 18 15 40 11 22 23 40 25 40 3 0 -4 -18 -15 -40z m-1243 -87
c-3 -2 -12 15 -22 39 -28 69 -27 78 0 19 14 -29 24 -55 22 -58z m349 70 c-8
-15 -15 -25 -16 -21 0 12 23 58 27 54 3 -2 -2 -17 -11 -33z m-155 -40 c-12
-20 -14 -14 -5 12 4 9 9 14 11 11 3 -2 0 -13 -6 -23z m658 -91 c34 -60 61
-113 61 -118 0 -5 -23 32 -51 81 -67 118 -80 145 -75 145 2 0 32 -49 65 -108z
m-528 71 c-12 -20 -14 -14 -5 12 4 9 9 14 11 11 3 -2 0 -13 -6 -23z m869 -13
c-11 -22 -23 -40 -25 -40 -3 0 4 18 15 40 11 22 23 40 25 40 3 0 -4 -18 -15
-40z m-187 -30 c4 0 5 -5 1 -11 -6 -10 -44 41 -44 59 0 4 8 -5 18 -20 9 -16
20 -28 25 -28z m-838 19 c4 12 9 20 12 18 2 -3 -1 -15 -8 -28 -11 -22 -12 -22
-25 -4 -8 10 -14 24 -14 29 1 6 7 0 14 -13 l14 -24 7 22z m-145 -34 c0 -5 -5
-3 -10 5 -5 8 -10 20 -10 25 0 6 5 3 10 -5 5 -8 10 -19 10 -25z m276 -2 c-8
-15 -15 -25 -16 -21 0 12 23 58 27 54 3 -2 -2 -17 -11 -33z m849 -33 c-9 -16
-18 -30 -21 -30 -2 0 2 14 11 30 9 17 18 30 21 30 2 0 -2 -13 -11 -30z m-1096
-35 c0 -5 -6 1 -14 15 -8 14 -14 30 -14 35 0 6 6 -1 14 -15 8 -14 14 -29 14
-35z m222 8 c-12 -20 -14 -14 -5 12 4 9 9 14 11 11 3 -2 0 -13 -6 -23z m824
-63 c-14 -27 -28 -50 -30 -50 -3 0 6 23 20 50 14 28 28 50 30 50 3 0 -6 -22
-20 -50z m-1025 5 c0 -5 -5 -3 -10 5 -5 8 -10 20 -10 25 0 6 5 3 10 -5 5 -8
10 -19 10 -25z m181 8 c-12 -20 -14 -14 -5 12 4 9 9 14 11 11 3 -2 0 -13 -6
-23z m630 -73 c-13 -11 -31 -20 -40 -20 -9 0 0 8 19 19 46 24 50 24 21 1z
m170 -17 c-19 -36 -94 -94 -118 -93 -4 1 9 10 29 20 21 11 50 36 65 55 31 39
39 44 24 18z m-233 -106 l57 -3 -62 -2 -63 -2 2 58 2 57 3 -52 4 -52 57 -4z
m99 7 c-3 -3 -12 -4 -19 -1 -8 3 -5 6 6 6 11 1 17 -2 13 -5z m-889 -271 c-10
-2 -28 -2 -40 0 -13 2 -5 4 17 4 22 1 32 -1 23 -4z m150 0 c-10 -2 -28 -2 -40
0 -13 2 -5 4 17 4 22 1 32 -1 23 -4z m-221 -9 c-3 -3 -12 -4 -19 -1 -8 3 -5 6
6 6 11 1 17 -2 13 -5z m270 0 c-3 -3 -12 -4 -19 -1 -8 3 -5 6 6 6 11 1 17 -2
13 -5z m-317 -14 c-8 -5 -19 -10 -25 -10 -5 0 -3 5 5 10 8 5 20 10 25 10 6 0
3 -5 -5 -10z m426 -32 c47 -32 114 -109 114 -131 0 -6 -13 9 -28 34 -34 52
-52 69 -112 103 -25 14 -40 26 -34 26 7 0 33 -15 60 -32z m-466 18 c0 -2 -7
-7 -16 -10 -8 -3 -12 -2 -9 4 6 10 25 14 25 6z m-76 -53 c-22 -21 -48 -49 -57
-63 -16 -23 -16 -22 0 9 10 18 34 46 53 62 49 41 51 36 4 -8z m314 -10 c-16
-2 -40 -2 -55 0 -16 2 -3 4 27 4 30 0 43 -2 28 -4z m-103 -13 c-27 -12 -43
-12 -25 0 8 5 22 9 30 9 10 0 8 -3 -5 -9z m162 4 c-3 -3 -12 -4 -19 -1 -8 3
-5 6 6 6 11 1 17 -2 13 -5z m66 -36 c18 -18 21 -23 7 -12 -14 12 -34 26 -45
32 -11 6 -14 12 -7 12 7 0 27 -15 45 -32z m-299 -3 c-17 -13 -37 -38 -44 -55
-7 -17 -15 -29 -17 -26 -14 13 62 106 86 106 3 0 -8 -11 -25 -25z m1879 -22
c-7 -2 -21 -2 -30 0 -10 3 -4 5 12 5 17 0 24 -2 18 -5z m-85 -23 c-20 -11 -40
-24 -43 -30 -12 -19 -25 -10 -24 18 1 22 2 23 6 5 l4 -22 36 25 c20 13 41 24
47 24 6 -1 -6 -10 -26 -20z m602 16 c0 -2 -53 -50 -117 -107 -65 -56 -107 -90
-93 -76 24 25 202 185 208 186 1 1 2 -1 2 -3z m120 -64 c-41 -37 -95 -86 -120
-109 l-45 -42 45 -48 45 -48 -47 45 c-27 24 -48 47 -48 51 0 8 231 219 240
219 3 0 -29 -31 -70 -68z m110 48 c6 -11 8 -20 6 -20 -3 0 -10 9 -16 20 -6 11
-8 20 -6 20 3 0 10 -9 16 -20z m179 -16 c12 -20 20 -38 18 -40 -2 -2 -14 14
-26 36 -28 50 -21 53 8 4z m286 -3 c-21 -43 -29 -39 -8 4 9 19 18 33 21 31 2
-2 -4 -18 -13 -35z m176 16 c-10 -9 -11 -8 -5 6 3 10 9 15 12 12 3 -3 0 -11
-7 -18z m-3496 -42 c-8 -27 -14 -41 -14 -29 -1 21 19 88 24 82 2 -2 -3 -25
-10 -53z m583 20 c-3 -3 -9 2 -12 12 -6 14 -5 15 5 6 7 -7 10 -15 7 -18z
m2882 -35 c-11 -22 -23 -40 -25 -40 -3 0 4 18 15 40 11 22 23 40 25 40 3 0 -4
-18 -15 -40z m-575 0 c9 -16 13 -30 11 -30 -3 0 -12 14 -21 30 -9 17 -13 30
-11 30 3 0 12 -13 21 -30z m-2128 -17 c-3 -10 -5 -4 -5 12 0 17 2 24 5 18 2
-7 2 -21 0 -30z m-600 -5 c-3 -7 -5 -2 -5 12 0 14 2 19 5 13 2 -7 2 -19 0 -25z
m3126 7 c-3 -9 -8 -14 -10 -11 -3 3 -2 9 2 15 9 16 15 13 8 -4z m-2686 -62
c-2 -16 -4 -5 -4 22 0 28 2 40 4 28 2 -13 2 -35 0 -50z m2498 -3 c19 -38 33
-70 30 -70 -2 0 -21 32 -40 70 -19 39 -33 70 -30 70 2 0 21 -31 40 -70z
m-1038 54 c-3 -3 -12 -4 -19 -1 -8 3 -5 6 6 6 11 1 17 -2 13 -5z m879 -66 c8
-16 13 -28 10 -28 -5 0 -46 69 -46 78 0 8 15 -13 36 -50z m294 -28 c-22 -44
-42 -80 -45 -80 -3 0 13 36 35 80 22 44 42 80 45 80 3 0 -13 -36 -35 -80z
m-1253 40 c-7 -17 -13 -26 -15 -21 -3 10 15 51 22 51 3 0 -1 -14 -7 -30z
m1438 0 c-9 -16 -18 -30 -21 -30 -2 0 2 14 11 30 9 17 18 30 21 30 2 0 -2 -13
-11 -30z m-3428 -42 c-3 -7 -5 -2 -5 12 0 14 2 19 5 13 2 -7 2 -19 0 -25z
m170 0 c-3 -7 -5 -2 -5 12 0 14 2 19 5 13 2 -7 2 -19 0 -25z m588 -45 c-10
-25 -32 -61 -49 -81 -35 -40 -103 -92 -120 -92 -6 0 5 10 24 21 80 48 148 142
151 209 1 19 3 20 6 6 3 -10 -3 -38 -12 -63z m-158 35 c-3 -8 -6 -5 -6 6 -1
11 2 17 5 13 3 -3 4 -12 1 -19z m2777 -41 c-14 -26 -28 -47 -30 -47 -3 0 7 23
22 50 15 28 29 49 31 47 2 -2 -8 -25 -23 -50z m-359 -42 c21 -38 34 -65 28
-60 -6 6 -27 42 -48 80 -21 39 -34 66 -28 60 6 -5 27 -41 48 -80z m-2988 23
c7 -16 11 -28 9 -28 -8 0 -36 58 -35 72 0 9 2 8 6 -2 3 -8 12 -27 20 -42z
m214 -32 c19 -15 24 -23 13 -17 -26 13 -84 77 -84 94 0 7 9 -2 19 -19 10 -17
34 -43 52 -58z m339 54 c-6 -11 -13 -20 -16 -20 -2 0 0 9 6 20 6 11 13 20 16
20 2 0 0 -9 -6 -20z m1948 -93 c56 -49 102 -92 102 -95 0 -3 -12 6 -27 19 -16
14 -66 59 -113 99 -99 85 -100 86 -80 75 8 -5 61 -49 118 -98z m652 56 c5 -7
6 -14 2 -17 -5 -3 -16 12 -26 32 -12 27 -13 32 -2 17 9 -11 20 -25 26 -32z
m-2323 -20 c-3 -10 -5 -4 -5 12 0 17 2 24 5 18 2 -7 2 -21 0 -30z m383 16 c0
-20 -58 -69 -82 -68 -18 1 -16 3 10 10 20 6 40 21 50 39 19 33 22 36 22 19z
m-729 -29 c-13 -11 -31 -20 -40 -20 -9 0 0 8 19 19 46 24 50 24 21 1z m-365
-78 c10 -7 6 -6 -11 2 -16 8 -46 31 -65 52 l-35 38 46 -39 c25 -22 54 -46 65
-53z m2664 -30 c8 -9 -3 -2 -25 15 -22 17 -56 48 -75 69 -23 25 -14 20 25 -15
33 -30 67 -61 75 -69z m489 41 c-39 -73 -76 -128 -49 -73 30 59 82 150 87 150
2 0 -15 -35 -38 -77z m-2212 37 c23 -7 24 -8 7 -9 -12 -1 -30 7 -41 17 -10 9
-13 13 -7 9 7 -5 25 -12 41 -17z m-161 -59 c18 -14 21 -18 8 -12 -26 12 -74
68 -74 84 0 7 9 -2 19 -19 10 -17 32 -41 47 -53z m-573 62 c-7 -2 -21 -2 -30
0 -10 3 -4 5 12 5 17 0 24 -2 18 -5z m90 0 c-7 -2 -19 -2 -25 0 -7 3 -2 5 12
5 14 0 19 -2 13 -5z m2632 -54 c9 -17 15 -33 13 -35 -3 -2 -12 12 -21 31 -21
43 -13 47 8 4z m-1826 -6 c-2 -24 -2 -25 -6 -6 l-4 23 -37 -25 c-20 -14 -43
-25 -52 -25 -8 1 -1 7 15 14 17 8 39 21 50 30 28 22 35 20 34 -11z m-1049 -13
c8 -5 11 -10 5 -10 -5 0 -17 5 -25 10 -8 5 -10 10 -5 10 6 0 17 -5 25 -10z
m47 -16 c-3 -3 -12 -4 -19 -1 -8 3 -5 6 6 6 11 1 17 -2 13 -5z m63 -63 c5 -42
12 -58 33 -77 16 -13 24 -24 18 -24 -5 0 -21 14 -35 31 -19 23 -26 42 -26 74
0 37 -3 44 -22 48 -20 5 -20 5 2 4 23 -2 26 -7 30 -56z m193 52 c-7 -2 -21 -2
-30 0 -10 3 -4 5 12 5 17 0 24 -2 18 -5z m530 0 c-7 -2 -21 -2 -30 0 -10 3 -4
5 12 5 17 0 24 -2 18 -5z m90 0 c-7 -2 -19 -2 -25 0 -7 3 -2 5 12 5 14 0 19
-2 13 -5z m1957 -23 c-11 -21 -41 -40 -62 -40 -7 1 1 7 18 14 17 8 34 21 37
30 4 9 9 16 12 16 3 0 1 -9 -5 -20z m-2550 -42 c52 -1 53 -2 11 -5 -53 -5 -91
3 -91 19 0 9 3 9 12 0 7 -7 37 -13 68 -14z m2701 5 c-19 -36 -94 -94 -118 -93
-4 1 9 10 29 20 21 11 50 36 65 55 31 39 39 44 24 18z m-233 -106 l57 -3 -62
-2 -63 -2 2 58 2 57 3 -52 4 -52 57 -4z m-2585 6 c-7 -2 -19 -2 -25 0 -7 3 -2
5 12 5 14 0 19 -2 13 -5z m2684 1 c-3 -3 -12 -4 -19 -1 -8 3 -5 6 6 6 11 1 17
-2 13 -5z m-2639 -281 c-10 -2 -26 -2 -35 0 -10 3 -2 5 17 5 19 0 27 -2 18 -5z
m49 -9 c-3 -3 -12 -4 -19 -1 -8 3 -5 6 6 6 11 1 17 -2 13 -5z m43 -14 c8 -5
11 -10 5 -10 -5 0 -17 5 -25 10 -8 5 -10 10 -5 10 6 0 17 -5 25 -10z m70 -41
l35 -30 -40 27 c-22 16 -42 29 -44 31 -2 2 0 3 5 3 5 0 25 -14 44 -31z m-267
-36 c-29 -2 -78 -2 -110 0 -32 2 -8 3 52 3 61 0 87 -1 58 -3z m361 -71 c10
-19 16 -36 13 -38 -2 -2 -12 14 -22 36 -10 22 -24 45 -32 51 -7 6 -13 16 -13
22 0 13 33 -30 54 -71z m-264 58 c18 -12 2 -12 -25 0 -13 6 -15 9 -5 9 8 0 22
-4 30 -9z m84 -61 c14 -17 26 -36 26 -42 0 -7 -9 2 -19 19 -10 17 -32 41 -47
53 -18 14 -21 18 -8 12 12 -6 34 -24 48 -42z m794 14 c-10 -2 -28 -2 -40 0
-13 2 -5 4 17 4 22 1 32 -1 23 -4z m120 0 c-10 -2 -28 -2 -40 0 -13 2 -5 4 17
4 22 1 32 -1 23 -4z m605 0 c-7 -2 -21 -2 -30 0 -10 3 -4 5 12 5 17 0 24 -2
18 -5z m-796 -9 c-3 -3 -12 -4 -19 -1 -8 3 -5 6 6 6 11 1 17 -2 13 -5z m240 0
c-3 -3 -12 -4 -19 -1 -8 3 -5 6 6 6 11 1 17 -2 13 -5z m471 -14 c-20 -11 -40
-24 -43 -30 -12 -19 -25 -10 -24 18 1 22 2 23 6 5 l4 -22 36 25 c20 13 41 24
47 24 6 -1 -6 -10 -26 -20z m202 -35 c0 -11 -14 7 -31 40 -7 13 -3 12 10 -5
11 -14 21 -29 21 -35z m155 25 c9 -16 13 -30 11 -30 -3 0 -12 14 -21 30 -9 17
-13 30 -11 30 3 0 12 -13 21 -30z m290 -9 c-21 -43 -29 -39 -8 4 9 19 18 33
21 31 2 -2 -4 -18 -13 -35z m176 16 c-10 -9 -11 -8 -5 6 3 10 9 15 12 12 3 -3
0 -11 -7 -18z m-1572 9 c-10 -9 -69 -36 -69 -32 0 7 52 35 64 36 5 0 7 -2 5
-4z m330 -11 c16 -8 40 -28 55 -45 25 -31 26 -34 24 -163 l-2 -132 -5 136 c-7
151 -11 163 -81 200 -19 10 -31 18 -27 19 4 0 21 -7 36 -15z m1231 -22 c0 -5
-10 -19 -21 -33 l-21 -25 18 33 c18 32 24 38 24 25z m-1640 -7 c0 -2 -8 -10
-17 -17 -16 -13 -17 -12 -4 4 13 16 21 21 21 13z m-403 -43 c-3 -10 -5 -4 -5
12 0 17 2 24 5 18 2 -7 2 -21 0 -30z m-170 -5 c-3 -7 -5 -2 -5 12 0 14 2 19 5
13 2 -7 2 -19 0 -25z m1623 12 c6 -11 8 -20 6 -20 -3 0 -10 9 -16 20 -6 11 -8
20 -6 20 3 0 10 -9 16 -20z m200 -60 c22 -44 38 -80 35 -80 -3 0 -23 36 -45
80 -22 44 -38 80 -35 80 3 0 23 -36 45 -80z m191 47 c-10 -9 -11 -8 -5 6 3 10
9 15 12 12 3 -3 0 -11 -7 -18z m-1478 -2 c-3 -9 -8 -14 -10 -11 -3 3 -2 9 2
15 9 16 15 13 8 -4z m280 8 c-13 -2 -35 -2 -50 0 -16 2 -5 4 22 4 28 0 40 -2
28 -4z m-111 -28 c-26 -22 -39 -25 -105 -25 -42 0 -78 3 -80 8 -3 4 32 6 77 4
72 -3 84 -1 100 17 11 12 23 21 28 21 5 0 -4 -11 -20 -25z m168 10 c19 -22 8
-25 -12 -3 -10 10 -14 18 -9 18 5 0 14 -7 21 -15z m567 9 c-3 -3 -12 -4 -19
-1 -8 3 -5 6 6 6 11 1 17 -2 13 -5z m713 -44 c-11 -22 -23 -40 -25 -40 -3 0 4
18 15 40 11 22 23 40 25 40 3 0 -4 -18 -15 -40z m-449 -82 c34 -62 64 -116 66
-120 2 -5 2 -8 -1 -8 -2 0 -32 51 -67 113 -34 61 -64 115 -66 120 -2 4 -2 7 1
7 2 0 32 -51 67 -112z m259 32 c-22 -44 -42 -80 -45 -80 -3 0 13 36 35 80 22
44 42 80 45 80 3 0 -13 -36 -35 -80z m-1085 40 c-3 -5 -14 -10 -23 -9 -14 0
-13 2 3 9 27 11 27 11 20 0z m478 -10 c-3 -12 -8 -19 -11 -16 -5 6 5 36 12 36
2 0 2 -9 -1 -20z m-1356 -22 c-3 -7 -5 -2 -5 12 0 14 2 19 5 13 2 -7 2 -19 0
-25z m170 -5 c-3 -10 -5 -4 -5 12 0 17 2 24 5 18 2 -7 2 -21 0 -30z m641 20
c-10 -2 -26 -2 -35 0 -10 3 -2 5 17 5 19 0 27 -2 18 -5z m-80 -10 c-10 -2 -26
-2 -35 0 -10 3 -2 5 17 5 19 0 27 -2 18 -5z m-61 -9 c-3 -3 -12 -4 -19 -1 -8
3 -5 6 6 6 11 1 17 -2 13 -5z m-686 -37 c-10 -9 -11 -8 -5 6 3 10 9 15 12 12
3 -3 0 -11 -7 -18z m586 2 c-23 -12 -44 -33 -52 -52 -8 -18 -14 -26 -15 -19
-1 33 62 93 95 92 6 -1 -7 -10 -28 -21z m-416 -16 c-12 -20 -14 -14 -5 12 4 9
9 14 11 11 3 -2 0 -13 -6 -23z m1939 -13 c-11 -22 -23 -40 -25 -40 -3 0 4 18
15 40 11 22 23 40 25 40 3 0 -4 -18 -15 -40z m-1222 13 c-10 -2 -26 -2 -35 0
-10 3 -2 5 17 5 19 0 27 -2 18 -5z m-914 -24 c-21 -23 -86 -59 -106 -59 -7 0
10 11 37 24 28 12 56 30 64 39 7 10 16 17 19 17 3 0 -3 -9 -14 -21z m844 14
c-10 -2 -26 -2 -35 0 -10 3 -2 5 17 5 19 0 27 -2 18 -5z m-61 -9 c-3 -3 -12
-4 -19 -1 -8 3 -5 6 6 6 11 1 17 -2 13 -5z m1155 -14 c10 -10 14 -22 9 -24 -4
-3 -13 6 -19 19 -14 30 -12 31 10 5z m-1761 -7 c-15 -25 -32 -44 -66 -73 -16
-14 -7 1 20 32 53 61 62 68 46 41z m559 2 c-7 -9 -15 -13 -17 -11 -7 7 7 26
19 26 6 0 6 -6 -2 -15z m184 -29 c-6 -17 -52 -42 -61 -33 -3 4 0 7 9 7 8 0 23
9 33 20 21 23 26 25 19 6z m1145 -73 c-39 -73 -76 -128 -49 -73 30 59 82 150
87 150 2 0 -15 -35 -38 -77z m-2236 50 c-29 -2 -78 -2 -110 0 -32 2 -8 3 52 3
61 0 87 -1 58 -3z m756 -58 l26 -30 -32 29 c-18 17 -33 37 -32 45 0 14 1 14 6
1 3 -8 17 -28 32 -45z m256 40 c6 -2 -10 -4 -35 -4 -25 0 -51 3 -59 8 -13 8
69 5 94 -4z m1005 -54 l20 -39 -29 -31 c-16 -17 -37 -31 -48 -30 -14 0 -12 3
7 10 14 5 32 20 42 32 15 20 15 24 -3 59 -11 21 -17 38 -14 38 2 0 14 -18 25
-39z m-1770 24 c0 -7 -57 -35 -72 -35 -7 0 5 9 27 19 48 23 45 22 45 16z m887
-31 c-4 -15 -5 -14 -6 4 l-1 23 -26 -20 c-15 -12 -31 -21 -37 -21 -5 0 5 11
24 24 36 24 54 20 46 -10z m157 1 c5 -22 4 -26 -4 -15 -5 8 -10 24 -10 34 0
26 6 18 14 -19z m-1137 -11 c-3 -3 -12 -4 -19 -1 -8 3 -5 6 6 6 11 1 17 -2 13
-5z m-49 -11 c-10 -2 -26 -2 -35 0 -10 3 -2 5 17 5 19 0 27 -2 18 -5z m939 1
c-3 -3 -12 -4 -19 -1 -8 3 -5 6 6 6 11 1 17 -2 13 -5z m-164 -11 c-7 -2 -21
-2 -30 0 -10 3 -4 5 12 5 17 0 24 -2 18 -5z m115 0 c-10 -2 -26 -2 -35 0 -10
3 -2 5 17 5 19 0 27 -2 18 -5z m1173 -60 c-19 -36 -94 -94 -118 -93 -4 1 9 10
29 20 21 11 50 36 65 55 31 39 39 44 24 18z m-233 -106 l57 -3 -62 -2 -63 -2
2 58 2 57 3 -52 4 -52 57 -4z m99 7 c-3 -3 -12 -4 -19 -1 -8 3 -5 6 6 6 11 1
17 -2 13 -5z"/>
</g>
</svg>
